<svg xmlns="http://www.w3.org/2000/svg" data-name="Layer 1" width="562" height="486.80525" viewBox="0 0 562 486.80525" xmlns:xlink="http://www.w3.org/1999/xlink"><path d="M553.88171,596.17145a15.51335,15.51335,0,0,0,15.61066,15.38848l265.99316-1.90637a15.5,15.5,0,0,0-.22216-30.9992L569.2702,580.56073A15.5134,15.5134,0,0,0,553.88171,596.17145Z" transform="translate(-319 -208.75509)" fill="#f2f2f2"/><path d="M585.78864,592.46466a.9845.9845,0,0,1,.98-.98706l68.70306-.24567a.98365.98365,0,1,1,.007,1.96729h0l-68.70307.24566A.98477.98477,0,0,1,585.78864,592.46466Z" transform="translate(-319 -208.75509)" fill="#ccc"/><path d="M585.868,601.48187a.98451.98451,0,0,1,.98-.98706l176.88977-1.04944a.98366.98366,0,0,1,.01123,1.96729h-.00421L586.855,602.4621A.98474.98474,0,0,1,585.868,601.48187Z" transform="translate(-319 -208.75509)" fill="#ccc"/><path d="M553.88171,537.17145a15.51335,15.51335,0,0,0,15.61066,15.38848l265.99316-1.90637a15.5,15.5,0,0,0-.22216-30.9992L569.2702,521.56073A15.5134,15.5134,0,0,0,553.88171,537.17145Z" transform="translate(-319 -208.75509)" fill="#f2f2f2"/><path d="M582.868,542.48187a.98451.98451,0,0,1,.98-.98706l176.88977-1.04944a.98365.98365,0,1,1,.007,1.96729h0L583.855,543.4621A.98474.98474,0,0,1,582.868,542.48187Z" transform="translate(-319 -208.75509)" fill="#ccc"/><path d="M582.868,532.48187a.98451.98451,0,0,1,.98-.98706l176.88977-1.04944a.98365.98365,0,1,1,.007,1.96729h0L583.855,533.4621A.98474.98474,0,0,1,582.868,532.48187Z" transform="translate(-319 -208.75509)" fill="#ccc"/><path d="M631.7298,664.56073l-265.99317-1.90637a15.5,15.5,0,0,0-.22216,30.9992l265.99316,1.90637a15.5,15.5,0,0,0,.22217-30.9992Z" transform="translate(-319 -208.75509)" fill="#f2f2f2"/><path d="M449.2243,677.44488l-68.70309-.24566a.98365.98365,0,1,1,.007-1.96729l68.70309.24567a.98365.98365,0,1,1-.007,1.96728Z" transform="translate(-319 -208.75509)" fill="#ccc"/><path d="M558.1449,686.4621l-176.88977-1.04944a.98365.98365,0,1,1,.007-1.96729h0l176.88974,1.04944a.98365.98365,0,1,1-.007,1.96729Z" transform="translate(-319 -208.75509)" fill="#ccc"/><circle cx="555" cy="327.16309" r="7" fill="#f2f2f2"/><circle cx="555" cy="386.16309" r="7" fill="#f2f2f2"/><path d="M559.72754,639.23578,367.28165,668.06433a12.07064,12.07064,0,1,1-3.57648-23.87488L556.151,615.361a12.07064,12.07064,0,1,1,3.57648,23.87488Z" transform="translate(-319 -208.75509)" fill="#ffdd32"/><path d="M425.82855,646.121l-49.67862,7.62439a.7196.7196,0,0,1-.21832-1.42255h0l49.67862-7.62439a.7196.7196,0,0,1,.21832,1.42255Z" transform="translate(-319 -208.75509)" fill="#fff"/><path d="M505.56784,640.26849,377.613,659.59772a.7196.7196,0,0,1-.21833-1.42255h0L505.34952,638.846a.7196.7196,0,1,1,.21832,1.42254Z" transform="translate(-319 -208.75509)" fill="#fff"/><path d="M515.0224,624.72589a5.16179,5.16179,0,0,1-4.74048-6.27124l-20.917-14.98023,2.721-6.80438,24.71338,17.97388a5.1546,5.1546,0,0,1-1.77692,10.082Z" transform="translate(-319 -208.75509)" fill="#a0616a"/><path d="M458.8288,540.96918l-12.569,4.5996a4.47859,4.47859,0,0,0-2.66672,5.74494q.074.20234.16727.39685l17.137,35.74939L502.188,617.21948l6.32873-10.0838-31.27807-28.48163Z" transform="translate(-319 -208.75509)" fill="#3f3d56"/><path d="M453.66049,614.90118c-14.32382-1.33142-28.355-4.638-42.70077-5.75l5.75732-14.653,29.4231,4.38208Z" transform="translate(-319 -208.75509)" fill="#a0616a"/><path d="M405.06342,618.3468l-.12436,1.09735-1.0242,8.81519-1.19977.07312-.0658,11.03918a5.13859,5.13859,0,0,1-2.09955,6.01337,4.21657,4.21657,0,0,1-.50476.278,52.55557,52.55557,0,0,1,.6511-17.19879,30.66231,30.66231,0,0,1,2.04834-6.11584,25.03154,25.03154,0,0,1,1.53625-2.81647C404.52206,619.12958,404.78543,618.73449,405.06342,618.3468Z" transform="translate(-319 -208.75509)" fill="#2f2e41"/><path d="M405.29019,616.44476l-.22677,1.89472v.00732l-.12436,1.09735c-.32187.04389-.54865.07312-.65842.08777a.63456.63456,0,0,1-.08048.00732Z" transform="translate(-319 -208.75509)" fill="#ffdd32"/><path d="M457.3768,580.11584l-2.47266,14.38233s6.00608,13.53375,1.87278,16.90625a4.22757,4.22757,0,0,0-1.37534,3.65045c-.58523-.05121-1.16315-.10242-1.74109-.15363-14.32382-1.33142-28.355-4.638-42.70077-5.75-1.01688-.08044-2.02643-.15362-3.04325-.20483l4.41858-12.56806-2.98474-11.17077-3.09445-11.58783-.66568-19.07892a10.6774,10.6774,0,0,1,.00726-1.0827c0-.19019.00733-.37311.022-.5633a16.16627,16.16627,0,0,1,6.84732-12.15838.02577.02577,0,0,0,.01464-.00733,16.20023,16.20023,0,0,1,2.12146-1.25824,15.715,15.715,0,0,1,2.46534-.973l.84863-.256,4.59412-7.43262,5.32574-.556,1.97519-.20483,12.868-1.33875,2.77261,3.59925.50477.65838,1.95321,2.53119,6.08652,3.24079a14.91892,14.91892,0,0,1,3.60654,2.67749,15.14139,15.14139,0,0,1,4.36737,9.2688,14.91894,14.91894,0,0,1,.04388,2.42877Z" transform="translate(-319 -208.75509)" fill="#3f3d56"/><path d="M394.73956,515.34356c-.13214,5.68567,1.99268,11.191,5.0452,16.02656a30.40274,30.40274,0,0,1,4.23785-7.84137,24.40954,24.40954,0,0,0,2.59775,15.45855,3.27754,3.27754,0,0,0,.27808.17835,9.58077,9.58077,0,0,0,8.33413,1.02191,18.69122,18.69122,0,0,1-1.60647-22.65094c1.32-1.908,3.02725-3.59537,3.84485-5.76666,1.29092-3.46442.05-7.27881-.73282-10.89081-.732-3.3617-.86011-7.36212,1.3952-9.82581a2.37012,2.37012,0,0,0-2.17218-1.00012,4.48308,4.48308,0,0,0-3.04736,2.6499,19.33328,19.33328,0,0,1-1.9682,3.69965c-1.66373,2.01248-4.497,2.48828-6.88468,3.54889C398.2785,502.52725,394.87817,509.017,394.73956,515.34356Z" transform="translate(-319 -208.75509)" fill="#2f2e41"/><path d="M443.41318,512.09274c-.33045-1.15652,1.94711,5.91306.84808,6.04068-5.00558.57422-11.877,3.56372-15.36331,4.95837-.157-.01824-.314-.03649-.4664-.05926-.374-.041-.73886-.10028-1.099-.16864-8.11792-1.53595-11.23965-14.006-11.23965-14.12,0-.56057,1.34545-15.9577,3.465-16.18557a15.62024,15.62024,0,0,1,1.67621-.09116h5.25955a24.4417,24.4417,0,0,1,3.30164-.47855h.00924c10.58838-.80673,18.93717,5.647,18.15677,13.49994-.0046.0091-.01385.01822-.01846.02735-.22629.33725-.42483.65631-.60034.96167-.17084.28714-.314.56057-.43866.82037-.96512,2.0054,1.51565,4.52881-.1293,4.99982-2.18781.62643,5.75405,21.21615-2.90558,21.21615C448.08121,534.71161,444.32474,515.28314,443.41318,512.09274Z" transform="translate(-319 -208.75509)" fill="#2f2e41"/><circle cx="114.96106" cy="302.96619" r="12.45264" fill="#a0616a"/><path d="M447.9613,506.16772c-.20779.10938-.411.20963-.6188.30994-.217.1048-.434.20965-.65109.30536-4.1698,1.89148-7.56379,2.1011-9.62329-.61527a11.5123,11.5123,0,0,0-.94663-4.14752,6.66635,6.66635,0,0,1-1.099,4.14752h-4.14667c-4.27136,2.8349-6.46478,3.13117-3.50021,12.438.82657,2.59332,4.11316,17.6839,2.82022,19.92175-.374-.041-4.3533-16.56988-4.71347-16.63824-8.11792-1.53595-13.27588-14.91025-12.61554-15.66681a13.94366,13.94366,0,0,1,1.44534-6.203,14.26749,14.26749,0,0,1,5.42118-5.89768,25.142,25.142,0,0,1,4.33139-1.6271c.03695-.00913.06927-.01825.1062-.02735.45715-.12307.92355-.237,1.38992-.33273a25.56923,25.56923,0,0,1,2.91837-.44208c.06927-.00454.13852-.00912.20318-.00912a2.19919,2.19919,0,0,1,1.11286.30539c.00461,0,.00461.00455.00924.00455a2.09465,2.09465,0,0,1,.61878.55148,2.1193,2.1193,0,0,1,.45254,1.3172h4.61768q.25626,0,.51257.01364A12.38136,12.38136,0,0,1,447.94284,505.516C447.95667,505.73474,447.9613,505.949,447.9613,506.16772Z" transform="translate(-319 -208.75509)" fill="#2f2e41"/><circle cx="101.73425" cy="285.22797" r="8.20388" fill="#2f2e41"/><path d="M400.54974,645.385a4.21657,4.21657,0,0,1-.50476.278,5.15136,5.15136,0,1,1-4.55368-9.24176q.13161-.06482.26679-.12213l-.01465-7.52765-.01465-8.85913-.01459-9.342,7.11066-1.75574-.08048,13.53376-.02929,5.98407-.0658,11.03918A5.13859,5.13859,0,0,1,400.54974,645.385Z" transform="translate(-319 -208.75509)" fill="#a0616a"/><path d="M428.656,549.30279l-.7389,1.38263-18.56683,34.522-.556,1.03149-2.62625,22.627-.87787,7.57886-.22677,1.89471v.00733l-.12436,1.09735-1.0242,8.81519-1.19977.07312-2.019.13171-4.95263.30725-3.709.23407.00733-5.93292.06579-44.96125,13.48984-24.65338.32922-.60717,5.20865-9.51752a4.48746,4.48746,0,0,1,6.09192-1.77838q.18526.10163.36038.22021Z" transform="translate(-319 -208.75509)" fill="#3f3d56"/><circle cx="7" cy="466.16309" r="7" fill="#f2f2f2"/><path d="M805.9281,421.20633s-2.53845,26.86993-3.943,46.76086v.01465q-.1647,2.40312-.30725,4.64536l-.74616.06585c-.51208.05121-1.01684.10971-1.529.16092-8.17877.87055-16.277,2.31174-24.4046,3.56265q-1.17417.17565-2.34833.35117a152.19083,152.19083,0,0,1-24.52167,1.98981h-.15362c.06585-1.02414.16821-2.36292.28534-3.8992.68768-8.69812,2.07757-23.77549,2.07757-23.77549l1.29486-8.72741,4.23566-28.589.0293-.21952.03656-.24868.20483-.05121,8.89569-2.31168,4.78436-1.23633,2.77991-3.83337,3.70166-5.10623,15.39191,1.89474,1.12659,4.1991,2.085,7.73984.06579.24872,8.07636,4.68927Z" transform="translate(-319 -208.75509)" fill="#e6e6e6"/><circle cx="464.95712" cy="174.03893" r="16.31188" fill="#ffb6b6"/><path d="M766.86505,372.92209c1.43219,1.15744,1.10443,6.78647,2.70038,5.869s1.928-2.56054,3.76575-2.57778a6.01723,6.01723,0,0,1,3.96258,1.79318c.19562.17679.38166.36215.56238.54538.16528-.058.32849-.11051.50024-.15354a5.18287,5.18287,0,0,1,3.80127.53525,5.0854,5.0854,0,0,0-2.89532,1.16745c.35077.39313.70685.78845,1.081,1.15381,3.124,3.06146,9.52948-.19879,13.83643-.93445-3.58722,3.91675-2.88,6.10324-1.98779,11.33841l.00372.286c.18347-1.2073,4.05011-1.14712,3.41266.45484a20.59327,20.59327,0,0,1-2.98023,4.381c5.26856-3.64987,9.52179-8.68094,10.46161-14.75824a8.93419,8.93419,0,0,0,.20538-3.82739,2.93513,2.93513,0,0,0-2.80334-2.235,10.815,10.815,0,0,0-13.3009-13.64243,41.33293,41.33293,0,0,0-5.00336,2.15955,8.99354,8.99354,0,0,1-5.29919.89755c-1.13166-.23376-2.27784-.81973-3.38715-.48794-1.28528.38547-1.83777,1.74289-2.353,3.05331a5.177,5.177,0,0,1,2.412,1.81943,5.06559,5.06559,0,0,0-3.11646-.12662.31645.31645,0,0,0-.05542.015C769.22461,371.73318,769.15729,372.24454,766.86505,372.92209Z" transform="translate(-319 -208.75509)" fill="#2f2e41"/><path d="M774.99805,476.41662q-1.17408.17565-2.34833.35117a152.19092,152.19092,0,0,1-24.52167,1.98981c.05847-1.29486.09509-2.597.13165-3.8992.05121-1.82157.08777-3.65046.12433-5.47934q.25233-12.43269.50476-24.85816c.00733-.395.01465-.79742.02192-1.19244.16827-8.37628.39508-17.03052,3.86993-24.66068a25.15318,25.15318,0,0,1,2.94812-4.8941c.05853-.08048.10974-.1536.16827-.22678.08045-.10238.161-.2048.2414-.29989a24.29793,24.29793,0,0,1,3.1018-3.21152,17.87074,17.87074,0,0,1,13.007-4.70389l.35114.534.4682.72427c-.30725,2.28974-.62183,4.58682-.91443,6.88391-1.26556,9.95642-2.17267,19.97141-1.15588,29.93515.86328,8.37632,3.07983,16.577,3.78216,24.96061.02924.278.05121.56332.07312.8413A69.71563,69.71563,0,0,1,774.99805,476.41662Z" transform="translate(-319 -208.75509)" fill="#3f3d56"/><path d="M800.93,472.68817c.36-1.56.7-3.13,1.06-4.71v-.01q2.08512-9.36,4.18-18.72c1.83-8.18,3.66-16.64,2.09-24.87a24.77831,24.77831,0,0,0-.61-2.51c-.08-.27-.17-.54-.26-.81a24.93325,24.93325,0,0,0-2.55-5.4c-2.78-4.44-6.94-7.89-12.02-8.8a1.6657,1.6657,0,0,0-.29-.06l-1.11,1.03c-.23,2.13-.45,4.28-.69,6.42-1.14,10.13-2.63,20.25-6.04,29.83-2.92,8.2-7.2,15.87-9.87,24.15-.01.05-.03.1-.04.14a70.77963,70.77963,0,0,0-2.13,8.4c.78-.12,1.57-.23,2.35-.35,8.13-1.25,16.22-2.69,24.4-3.56Z" transform="translate(-319 -208.75509)" fill="#3f3d56"/><path d="M816.81964,379.36184l-.46814-4.49176-.10974-1.03884-.16827-1.66791-3.6139-34.66834a4.7198,4.7198,0,0,0-2.07031-5.38421,4.52655,4.52655,0,0,0-6.20355,1.56552c-.022.03656-.03662.07315-.05853.10971a4.74625,4.74625,0,0,0,1.63867,6.40842,4.8073,4.8073,0,0,0,.68036.32189l-.02924.973-.08777,3.05056-.06585,2.30442-.139,4.58682-.05121,1.77771-.16827,5.76459-.16095,5.55984-.19751,6.73758-.15363,5.17941,1.86548.47553Z" transform="translate(-319 -208.75509)" fill="#ffb6b6"/><path d="M820.43353,386.74319a8.15334,8.15334,0,0,0-.43158-1.763c-.94372-1.6387-1.52166.651-1.00219-3.73828.417-3.56265-2.085-3.11639-1.18512-3.87723,1.485-1.25824-.5633-1.81424-1.46308-2.49456-.4024-.3-.57062-.62186-.10974-1.03885a3.104,3.104,0,0,1,.71692-.46817c.98029-.51209.417-.89985-.88513-1.19974a61.79056,61.79056,0,0,0-8.85913-.82666c-.71692-.03656-1.30213-.05121-1.66791-.06586-.27069-.00729-.42432-.00729-.42432-.00729a2.93279,2.93279,0,0,0-.89978,1.83615,10.18908,10.18908,0,0,0,.33649,4.44052,15.70113,15.70113,0,0,0,1.19244,2.88232A2.07159,2.07159,0,0,1,806,381.54919v.00733a1.61363,1.61363,0,0,1-.84131,1.08267c-.98761.65838-.4389,2.041.32923,3.3432a14.78822,14.78822,0,0,1,1.65332,2.80914c0,.89984-6.08655,20.02262-6.08655,20.02262l2.23852,28.87442a8.03127,8.03127,0,0,0,5.83777,1.6167,8.6254,8.6254,0,0,0,4.6015-2.341,20.36686,20.36686,0,0,0,4.25031-6.02072C823.8938,419.07052,821.69183,393.75149,820.43353,386.74319Z" transform="translate(-319 -208.75509)" fill="#3f3d56"/><path d="M709.439,339.12481a4.7406,4.7406,0,0,1,2.2387,6.22156,4.55092,4.55092,0,0,1-.3767.65064l21.04864,29.13913-7.82538,8.82653L704.6261,346.87631a4.72736,4.72736,0,0,1-1.31226-5.62033,4.52413,4.52413,0,0,1,6.01331-2.1853Q709.38346,339.09695,709.439,339.12481Z" transform="translate(-319 -208.75509)" fill="#ffb6b6"/><path d="M768.44232,424.56378s-2.81372,10.06424-15.94574,2.66992-27.3349-35.00665-27.4765-36.89862,1.62238-.31955-1.26819-3.65738c-2.35089-2.71466-.02917-3.751-1.19946-3.87662-3.086-.33108,2.27191-4.243-1.53858-3.79415s8.61451-8.38276,8.61451-8.38276,2.26446.05436,3.99267,4.88105c.97064,2.711.05371,4.56585,2.36707,4.55532s1.323,5.482,1.81219,6.20777,16.27692,13.14618,16.27692,13.14618Z" transform="translate(-319 -208.75509)" fill="#3f3d56"/><circle cx="431.97128" cy="76.08154" r="76.08154" fill="#ffdd32"/><path d="M712.31219,267.90576a20.918,20.918,0,0,1,1.79975,4.75766c1.03186,4.34677.30749,8.29159-2.06531,10.14181a4.59816,4.59816,0,0,1-.76465.50147c-2.96863,1.55246-7.06427-.08606-10.347-3.75226a20.9179,20.9179,0,0,1-2.88086-4.19229,20.44948,20.44948,0,0,1-1.7854-4.70877c-1.15644-4.80075-.17066-9.13055,2.80676-10.68762C703.01886,257.90356,708.94312,261.4635,712.31219,267.90576Z" transform="translate(-319 -208.75509)" fill="#fff"/><path d="M711.05188,275.33578a10.94482,10.94482,0,0,1,.99475,7.46945,4.59816,4.59816,0,0,1-.76465.50147c-2.96863,1.55246-7.06427-.08606-10.347-3.75226a20.9179,20.9179,0,0,1-2.88086-4.19229,20.44948,20.44948,0,0,1-1.7854-4.70877A10.9918,10.9918,0,0,1,711.05188,275.33578Z" transform="translate(-319 -208.75509)" fill="#3f3d56"/><path d="M741.84723,252.46c3.23468,6.18524,2.93878,12.78366-.57446,15.12881a4.59191,4.59191,0,0,1-.45575.27216c-3.93445,2.05759-9.85877-1.50235-13.22779-7.94455a20.36766,20.36766,0,0,1-1.78076-4.69989c-1.16113-4.80958-.17535-9.1394,2.80213-10.6965C732.55383,242.45785,738.47815,246.01777,741.84723,252.46Z" transform="translate(-319 -208.75509)" fill="#fff"/><path d="M740.29449,260.043a10.94756,10.94756,0,0,1,.97828,7.54583,4.59191,4.59191,0,0,1-.45575.27216c-3.93445,2.05759-9.85877-1.50235-13.22779-7.94455a20.36766,20.36766,0,0,1-1.78076-4.69989A10.9913,10.9913,0,0,1,740.29449,260.043Z" transform="translate(-319 -208.75509)" fill="#3f3d56"/><path d="M708.58124,311.61105c8.95788,17.12906,26.33648,25.72418,38.81622,19.19772s15.33478-25.703,6.37689-42.832C743.934,302.324,729.031,310.402,708.58124,311.61105Z" transform="translate(-319 -208.75509)" fill="#fff"/><path d="M818.48193,249.69211a76.10875,76.10875,0,0,0-77.53668-40.1648,76.08839,76.08839,0,0,1,.23541,150.84473,76.0624,76.0624,0,0,0,77.30127-110.67993Z" transform="translate(-319 -208.75509)" opacity="0.2" style="isolation:isolate"/></svg>